<svg height="19" viewBox="0 0 18 19" width="18" xmlns="http://www.w3.org/2000/svg"><path d="m231.4498 102.77501c.2933-.00562.5793.0921.8078.27606.2285.18397.385.44244.4422.73019l.3187 1.575c.2831.13791.5566.29451.8188.46875l1.5187-.5125c.1291-.04243.2642-.06354.4-.0625.2192.00022.4345.05809.6243.16779s.3474.26737.457.45721l1.475 2.5c.1547.25099.2158.54861.1723.84025-.0434.29164-.1886.55853-.4098.7535l-1.2 1.05004v.9562l1.1812 1.0813c.2181.1911.3629.4522.4096.7384.0468.2862-.0074.5797-.1533.8303l-1.425 2.5c-.1096.1898-.2672.3475-.457.4572s-.4051.1676-.6243.1678c-.1358.0011-.2709-.0201-.4-.0625l-1.5125-.5125c-.2643.1743-.5399.3309-.825.4688l-.3187 1.575c-.0572.2877-.2137.5462-.4422.7301-.2285.184-.5145.2817-.8078.2761h-2.95001c-.29331.0056-.57926-.0921-.80778-.2761-.22853-.1839-.38507-.4424-.44222-.7301l-.31875-1.575c-.28301-.1379-.55654-.2945-.81875-.4688l-1.51875.5125c-.12905.0424-.26415.0636-.4.0625-.2192-.0002-.43449-.0581-.62427-.1678s-.34738-.2674-.45698-.4572l-1.475-2.5c-.15256-.2531-.21053-.552-.16362-.8438.04691-.2917.19566-.5574.41987-.7499l1.18125-1.05v-.9563l-1.18125-1.08124c-.21805-.19117-.36284-.45221-.40959-.7384s.00746-.57973.15334-.83035l1.475-2.5c.1096-.18984.2672-.34751.45698-.45721s.40507-.16757.62427-.16779c.13448-.00915.26956.00352.4.0375l1.4875.5375c.26436-.17428.53996-.33087.825-.46875l.31875-1.575c.05715-.28775.21369-.54622.44222-.73019.22852-.18396.51447-.28168.80778-.27606zm.025 1.225h-2.95001l-.44375 2.24375c-.61837.22391-1.19191.55618-1.69375.98125l-2.14375-.725-1.475 2.5 1.7 1.54375c-.11556.64694-.11556 1.30924 0 1.95625l-1.7 1.5 1.475 2.5 2.15-.70001c.50357.4193 1.07401.751 1.6875.9813l.44375 2.2187h2.95001l.4437-2.2437c.6184-.2239 1.192-.5562 1.6938-.9813l2.1437.72501 1.475-2.5-1.7-1.54371c.1156-.647.1156-1.3093 0-1.95629l1.7-1.5-1.475-2.5-2.15.7c-.5035-.41929-1.074-.75099-1.6875-.98125zm-.0397 4.03544c.6852.28383 1.2709.76448 1.6829 1.38116.4121.61669.631999 1.34171.631999 2.08339.005001.4939-.088599.9837-.275199 1.441-.1867.4572-.4628.8726-.812 1.2218s-.7646.6253-1.2218.812c-.4573.1866-.9471.2802-1.441.275199-.74168 0-1.4667-.219899-2.08339-.631999-.61668-.412-1.09733-.9977-1.38116-1.6829-.28383-.6853-.35809-1.4393-.21339-2.16669.14469-.72743.50184-1.39561 1.02629-1.92006s1.19263-.8816 1.92006-1.02629c.72743-.1447 1.48139-.07044 2.16669.21339zm-1.4351.96455c-.33041-.0077-.65895.05171-.96574.17462s-.58547.30678-.81916.54048c-.2337.23369-.41757.51237-.54048.81916s-.18232.63534-.17462.96574c-.0077.3304.05171.6589.17462.9657s.30678.5855.54048.8192c.23369.2337.51237.4176.81916.5405s.63533.1823.96574.1746c.3304.0077.6589-.0517.9657-.1746s.5855-.3068.8192-.5405.4176-.5124.5405-.8192.1823-.6353.1746-.9657c.0077-.3304-.0517-.65895-.1746-.96574s-.3068-.58547-.5405-.81916c-.2337-.2337-.5124-.41757-.8192-.54048s-.6353-.18232-.9657-.17462z" fill="#fff" transform="translate(-221 -102)"/></svg>