<svg xmlns="http://www.w3.org/2000/svg" width="32" height="32" viewBox="0 0 32 32" fill="none">
  <circle cx="16" cy="16" r="16" fill="#F5F5F5"/>
  <path fill-rule="evenodd" clip-rule="evenodd" d="M7.27319 19.2732L12.7277 24.7277H24.7277V12.7277L19.2732 7.27319H9.45501C8.25003 7.27319 7.27319 8.25003 7.27319 9.45501V19.2732ZM18.1823 8.3641H9.45501C8.8987 8.3641 8.43965 8.78051 8.37254 9.31865H8.3641L8.3641 19.2732H10.5459L10.5459 11.0914C10.5459 10.7901 10.7901 10.5459 11.0914 10.5459H16.0005V13.2732C16.0005 13.5744 15.7563 13.8186 15.455 13.8186H12.7277V16.0005L16.0005 19.2732H19.2732L16.0005 16.0005C17.2055 16.0005 18.1823 15.0236 18.1823 13.8186V8.3641Z" fill="#181818"/>
</svg>