<svg xmlns="http://www.w3.org/2000/svg" width="16" height="16" viewBox="0 0 16 16" fill="none">
  <path d="M5.50001 12.2368H10.5V11.1316H5.50001V12.2368ZM5.50001 9.28946H10.5V8.18423H5.50001V9.28946ZM4.20514 15C3.86838 15 3.58334 14.8711 3.35 14.6132C3.11667 14.3553 3 14.0402 3 13.668V2.33199C3 1.95979 3.11667 1.64474 3.35 1.38684C3.58334 1.12895 3.86838 1 4.20514 1H9.50002L13 4.8684V13.668C13 14.0402 12.8833 14.3553 12.65 14.6132C12.4167 14.8711 12.1316 15 11.7949 15H4.20514ZM9.00002 5.42103V2.10525H4.20514C4.15385 2.10525 4.10683 2.12886 4.06409 2.1761C4.02135 2.22334 3.99999 2.27531 3.99999 2.33199V13.668C3.99999 13.7247 4.02135 13.7767 4.06409 13.8239C4.10683 13.8711 4.15385 13.8948 4.20514 13.8948H11.7949C11.8462 13.8948 11.8932 13.8711 11.9359 13.8239C11.9786 13.7767 12 13.7247 12 13.668V5.42103H9.00002Z" fill="#181818"/>
</svg>