<svg height="19" viewBox="0 0 17 19" width="17" xmlns="http://www.w3.org/2000/svg"><path d="m320.0669 73.4331-1.6919-1.6919v-2.2412c-.002-1.54878-.5782-3.04181-1.6172-4.19038s-2.467-1.8711-4.0078-2.02787v-1.28175h-1.25v1.28175c-1.54083.15677-2.9688.8793-4.00779 2.02787s-1.6152 2.6416-1.61721 4.19038v2.2412l-1.69194 1.6919c-.11719.1172-.18306.2762-.18306.4419v1.875c0 .1658.06585.3247.18306.4419.11721.1173.27618.1831.44194.1831h4.375v.4855c-.01355.7929.26595 1.5628.78493 2.1624s1.24095.9865 2.02757 1.0868c.4345.0431.8731-.0052 1.2878-.1418s.7962-.3585 1.12-.6514c.3237-.2929.5826-.6503.76-1.0493.1773-.3989.2692-.8306.2697-1.2672v-.625h4.375c.1658 0 .3247-.0658.4419-.1831.1173-.1172.1831-.2761.1831-.4419v-1.875c0-.1657-.0659-.3247-.1831-.4419zm-6.0669 3.5669c0 .4973-.1975.9742-.5492 1.3258-.3516.3517-.8285.5492-1.3258.5492-.49728 0-.97419-.1975-1.32583-.5492-.35163-.3516-.54917-.8285-.54917-1.3258v-.625h3.75zm5-1.875h-13.75v-.9912l1.69187-1.6919c.11722-.1172.18309-.2762.18313-.4419v-2.5c0-1.32608.52678-2.59785 1.46447-3.53553.93768-.93769 2.20945-1.46447 3.53553-1.46447 1.3261 0 2.5979.52678 3.5355 1.46447.9377.93768 1.4645 2.20945 1.4645 3.53553v2.5c0 .1657.0659.3247.1831.4419l1.6919 1.6919z" fill="#fff" transform="translate(-304 -62)"/></svg>