<svg xmlns="http://www.w3.org/2000/svg" width="16" height="16" viewBox="0 0 16 16" fill="none">
  <path d="M12.1761 3.34023C10.7042 1.86836 8.30734 1.86836 6.83703 3.34023L2.7589 7.41523C2.73234 7.4418 2.71828 7.47773 2.71828 7.51523C2.71828 7.55273 2.73234 7.58867 2.7589 7.61523L3.33546 8.1918C3.36182 8.21804 3.39749 8.23277 3.43468 8.23277C3.47187 8.23277 3.50755 8.21804 3.5339 8.1918L7.61203 4.1168C8.11828 3.61055 8.79171 3.33242 9.50734 3.33242C10.223 3.33242 10.8964 3.61055 11.4011 4.1168C11.9073 4.62305 12.1855 5.29648 12.1855 6.01055C12.1855 6.72617 11.9073 7.39805 11.4011 7.9043L7.24484 12.059L6.5714 12.7324C5.94171 13.3621 4.91828 13.3621 4.28859 12.7324C3.9839 12.4277 3.81671 12.023 3.81671 11.5918C3.81671 11.1605 3.9839 10.7559 4.28859 10.4512L8.41203 6.3293C8.51671 6.22617 8.65421 6.16836 8.80109 6.16836H8.80265C8.94953 6.16836 9.08546 6.22617 9.18859 6.3293C9.29328 6.43398 9.34953 6.57148 9.34953 6.71836C9.34953 6.86367 9.29171 7.00117 9.18859 7.1043L5.81828 10.4715C5.79171 10.498 5.77765 10.534 5.77765 10.5715C5.77765 10.609 5.79171 10.6449 5.81828 10.6715L6.39484 11.248C6.42119 11.2743 6.45687 11.289 6.49406 11.289C6.53125 11.289 6.56692 11.2743 6.59328 11.248L9.96203 7.8793C10.273 7.56836 10.4433 7.15586 10.4433 6.7168C10.4433 6.27773 10.2714 5.86367 9.96203 5.5543C9.31984 4.91211 8.27609 4.91367 7.6339 5.5543L7.2339 5.95586L3.51203 9.67617C3.25942 9.9273 3.05918 10.2261 2.92293 10.5552C2.78667 10.8843 2.71711 11.2372 2.71828 11.5934C2.71828 12.3168 3.00109 12.9965 3.51203 13.5074C4.04171 14.0355 4.73546 14.2996 5.42921 14.2996C6.12296 14.2996 6.81671 14.0355 7.34484 13.5074L12.1761 8.6793C12.887 7.9668 13.2808 7.01836 13.2808 6.01055C13.2823 5.00117 12.8886 4.05273 12.1761 3.34023Z" fill="#999999"/>
</svg>