<svg width="14" height="16" viewBox="0 0 14 16" fill="none" xmlns="http://www.w3.org/2000/svg">
<path fill-rule="evenodd" clip-rule="evenodd" d="M13.0684 7.51034V9.87724L13.8351 11.408C13.8351 11.408 14 11.6578 14 11.8077V12.6073C14 12.7573 13.9407 12.9011 13.8352 13.0072C13.7296 13.1132 13.5865 13.1728 13.4372 13.1728H9.81696C9.81696 13.9226 9.52051 14.6417 8.99282 15.1719C8.46514 15.7021 7.74945 16 7.00319 16C6.25694 16 5.54124 15.7021 5.01356 15.1719C4.48588 14.6417 4.18943 13.9226 4.18943 13.1728H0.562753C0.413502 13.1728 0.270363 13.1132 0.164826 13.0072C0.0592899 12.9011 0 12.7573 0 12.6073V11.8077C3.18729e-05 11.6578 0.164887 11.408 0.164887 11.408L0.937922 9.87724V5.62575C0.939728 4.22455 1.45855 2.87379 2.39406 1.83467C3.32958 0.795537 4.61533 0.141832 6.0027 0L8.0036 2.57717e-05C9.39097 0.141858 10.6767 0.795421 11.6122 1.83455C12.5477 2.87368 13.0666 4.22444 13.0684 5.62564V7.51034ZM8.69145 13.1728C8.69145 13.6227 8.51358 14.0541 8.19697 14.3723C7.88036 14.6904 7.45095 14.8691 7.00319 14.8691C6.55544 14.8691 6.12602 14.6904 5.80941 14.3723C5.4928 14.0541 5.31493 13.6227 5.31493 13.1728H8.69145ZM11.9429 7.51034V10.1114C11.9429 10.2613 12.1078 10.5112 12.1078 10.5112L12.8745 12.0419H1.12551L1.89854 10.5112C1.89854 10.5112 2.0634 10.2613 2.06343 10.1114V5.62575C2.06198 4.83124 2.2692 4.0504 2.66417 3.3621C3.05914 2.6738 3.62787 2.1024 4.31293 1.7056C4.99799 1.3088 6.21286 1.10065 7.0036 1.10218C8.23198 1.1037 9.00832 1.31485 9.69186 1.71429V1.70461L9.69337 1.70548C10.3784 2.10228 10.9472 2.67368 11.3421 3.36198C11.7371 4.05029 11.9443 4.83112 11.9429 5.62564V7.51034Z" fill="#F5F5F5"/>
</svg>
