<svg xmlns="http://www.w3.org/2000/svg" width="17" height="16" viewBox="0 0 17 16" fill="none">
  <path d="M4.5756 4.95865V7.18688H7.95987V4.95865C7.95987 4.64034 8.03352 4.39975 8.17345 4.24059C8.31707 4.08143 8.50488 4 8.73688 4C8.96888 4 9.16406 4.07773 9.31136 4.23689C9.45866 4.39605 9.52863 4.63293 9.52863 4.95495V11.0881C9.52863 11.4101 9.45498 11.6507 9.30768 11.8099C9.16038 11.969 8.96888 12.0505 8.73688 12.0505C8.50488 12.0505 8.31339 11.969 8.16977 11.8099C8.02615 11.6507 7.95987 11.4101 7.95987 11.0918V8.47496H4.5756V11.0918C4.5756 11.4138 4.50195 11.6544 4.35465 11.8136C4.20735 11.9728 4.01585 12.0542 3.78385 12.0542C3.55185 12.0542 3.36036 11.9728 3.21674 11.8136C3.07312 11.6544 3.00684 11.4138 3.00684 11.0955V4.96236C3.00684 4.64404 3.0768 4.40345 3.21674 4.24429C3.35668 4.08513 3.54449 4.0037 3.78385 4.0037C4.02322 4.0037 4.21103 4.08143 4.35833 4.24059C4.50563 4.39975 4.5756 4.63664 4.5756 4.95865Z" fill="white" fill-opacity="0.45"/>
  <path d="M12.2905 11.4074V8.01696C11.6608 8.50184 11.241 8.74243 11.0237 8.74243C10.9206 8.74243 10.8285 8.70171 10.7475 8.61658C10.6665 8.53515 10.626 8.43892 10.626 8.32788C10.626 8.20203 10.6665 8.1095 10.7438 8.04657C10.8212 7.98365 10.9648 7.90962 11.1636 7.81709C11.4619 7.67643 11.7013 7.52468 11.8817 7.36922C12.0622 7.21376 12.2205 7.0361 12.3568 6.84363C12.4967 6.65116 12.5851 6.52901 12.6256 6.48459C12.6698 6.44018 12.7471 6.41797 12.8613 6.41797C12.9939 6.41797 13.097 6.46979 13.178 6.56972C13.2553 6.67336 13.2958 6.81031 13.2958 6.99168V11.2594C13.2958 11.759 13.1264 12.007 12.7876 12.007C12.6366 12.007 12.5151 11.9552 12.4231 11.8553C12.331 11.7553 12.2868 11.6036 12.2868 11.4037L12.2905 11.4074Z" fill="white" fill-opacity="0.45"/>
</svg>