<svg xmlns="http://www.w3.org/2000/svg" width="17" height="16" viewBox="0 0 17 16" fill="none">
  <path d="M3.5756 4.95865V7.18688H6.95987V4.95865C6.95987 4.64034 7.03352 4.39975 7.17345 4.24059C7.31707 4.08143 7.50488 4 7.73688 4C7.96888 4 8.16406 4.07773 8.31136 4.23689C8.45866 4.39605 8.52863 4.63293 8.52863 4.95495V11.0881C8.52863 11.4101 8.45498 11.6507 8.30768 11.8099C8.16038 11.9691 7.96888 12.0505 7.73688 12.0505C7.50488 12.0505 7.31339 11.9691 7.16977 11.8099C7.02615 11.6507 6.95987 11.4101 6.95987 11.0918V8.47496H3.5756V11.0918C3.5756 11.4138 3.50195 11.6544 3.35465 11.8136C3.20735 11.9728 3.01585 12.0542 2.78385 12.0542C2.55185 12.0542 2.36036 11.9728 2.21674 11.8136C2.07312 11.6544 2.00684 11.4138 2.00684 11.0955V4.95865C2.00684 4.64034 2.0768 4.39975 2.21674 4.24059C2.35668 4.08143 2.54449 4 2.78385 4C3.02322 4 3.21103 4.07773 3.35833 4.23689C3.50563 4.39605 3.5756 4.63293 3.5756 4.95495V4.95865Z" fill="white" fill-opacity="0.45"/>
  <path d="M10.8455 11.0398H12.7825C12.974 11.0398 13.1213 11.0806 13.2244 11.1583C13.3275 11.236 13.3754 11.3471 13.3754 11.484C13.3754 11.6062 13.3349 11.7098 13.2538 11.7949C13.1728 11.8801 13.0513 11.9208 12.8893 11.9208H10.1605C9.97637 11.9208 9.82907 11.869 9.72596 11.7653C9.62284 11.6617 9.57129 11.5395 9.57129 11.4026C9.57129 11.3137 9.60443 11.1953 9.67072 11.0472C9.737 10.8992 9.81066 10.7845 9.88799 10.6993C10.2157 10.3551 10.514 10.0627 10.7792 9.81839C11.0443 9.5741 11.2321 9.41124 11.3463 9.33722C11.5488 9.19286 11.7182 9.04851 11.8545 8.90416C11.9907 8.7598 12.0902 8.60805 12.1638 8.45629C12.2338 8.30453 12.2706 8.15278 12.2706 8.00842C12.2706 7.84927 12.2338 7.70861 12.1564 7.58277C12.0791 7.45692 11.9797 7.36068 11.8471 7.29036C11.7182 7.22003 11.5746 7.18672 11.4236 7.18672C11.0995 7.18672 10.8455 7.33107 10.6576 7.61608C10.6319 7.65309 10.5914 7.75673 10.5324 7.92329C10.4735 8.08985 10.4072 8.2194 10.3373 8.30824C10.2636 8.39707 10.1568 8.44148 10.0169 8.44148C9.89167 8.44148 9.78856 8.40077 9.70754 8.31934C9.62653 8.23791 9.58602 8.12687 9.58602 7.98251C9.58602 7.81225 9.62653 7.63088 9.70018 7.44582C9.77751 7.26075 9.89167 7.09048 10.0427 6.93873C10.1936 6.78697 10.3888 6.66483 10.6208 6.57229C10.8528 6.47976 11.129 6.43164 11.442 6.43164C11.8213 6.43164 12.1417 6.49086 12.4105 6.60931C12.5836 6.68704 12.7346 6.79808 12.8672 6.93873C12.9997 7.07938 13.0992 7.23854 13.1728 7.41991C13.2465 7.60127 13.2833 7.79375 13.2833 7.98992C13.2833 8.29713 13.206 8.57844 13.055 8.83013C12.904 9.08182 12.7493 9.2817 12.591 9.42235C12.4326 9.5667 12.1675 9.78878 11.7955 10.096C11.4236 10.4032 11.1695 10.6401 11.0296 10.8067C10.9707 10.8733 10.9081 10.9547 10.8491 11.0472L10.8455 11.0398Z" fill="white" fill-opacity="0.45"/>
</svg>