<svg height="14" viewBox="0 0 14 14" width="14" xmlns="http://www.w3.org/2000/svg"><path d="m635.000001 238c1.856519 0 3.636999.7375 4.949699 2.05025 1.3128 1.31276 2.050301 3.09323 2.050301 4.94975 0 1.38447-.410501 2.7378-1.179701 3.889-.7692 1.1511-1.8624 2.0483-3.1415 2.5782-1.2791.5298-2.68656.6684-4.04443.3983s-2.60515-.9368-3.58411-1.9158c-.97897-.9789-1.64566-2.2262-1.91575-3.58407-.2701-1.35787-.13148-2.76533.39834-4.04441.52981-1.27909 1.42702-2.37234 2.57816-3.14151 1.15115-.76917 2.50452-1.17971 3.888991-1.17971zm2.296099 1.45672c-1.09635-.45412-2.30275-.57294-3.46664-.34143-1.16388.23151-2.23298.80295-3.0721 1.64207-.83911.83911-1.41056 1.90821-1.64207 3.0721-.23151 1.16388-.11269 2.37028.34144 3.46664.45412 1.0964 1.22316 2.0334 2.20985 2.6927.9867.6593 2.14674 1.0112 3.33342 1.0112 1.5913 0 3.1174-.6321 4.2426-1.7574 1.1253-1.1252 1.7574-2.6513 1.7574-4.2426 0-1.18669-.3519-2.34673-1.0112-3.33342-.6593-.9867-1.5963-1.75573-2.6927-2.20986zm.4964 3.04328.7075.7075-4.5 4.4995-2.5-2.5005.7065-.7065 1.7935 1.793z" fill="#6affaf" transform="translate(-628 -238)"/></svg>