<svg xmlns="http://www.w3.org/2000/svg" width="17" height="16" viewBox="0 0 17 16" fill="none">
  <path d="M15.0925 4.4434H4.78134C4.5788 4.4434 4.41309 4.27684 4.41309 4.07326C4.41309 3.86969 4.5788 3.70312 4.78134 3.70312H15.0925C15.295 3.70312 15.4607 3.86969 15.4607 4.07326C15.4607 4.27684 15.295 4.4434 15.0925 4.4434Z" fill="white" fill-opacity="0.45"/>
  <path d="M15.0925 8.51566H4.78134C4.5788 8.51566 4.41309 8.3491 4.41309 8.14553C4.41309 7.94195 4.5788 7.77539 4.78134 7.77539H15.0925C15.295 7.77539 15.4607 7.94195 15.4607 8.14553C15.4607 8.3491 15.295 8.51566 15.0925 8.51566Z" fill="white" fill-opacity="0.45"/>
  <path d="M15.0925 12.2168H4.78134C4.5788 12.2168 4.41309 12.0503 4.41309 11.8467C4.41309 11.6431 4.5788 11.4766 4.78134 11.4766H15.0925C15.295 11.4766 15.4607 11.6431 15.4607 11.8467C15.4607 12.0503 15.295 12.2168 15.0925 12.2168Z" fill="white" fill-opacity="0.45"/>
  <path d="M2.18157 3C1.53344 3 1.00684 3.5293 1.00684 4.18074C1.00684 4.83218 1.53344 5.36148 2.18157 5.36148C2.8297 5.36148 3.3563 4.83218 3.3563 4.18074C3.3563 3.5293 2.8297 3 2.18157 3Z" fill="white" fill-opacity="0.45"/>
  <path d="M2.18157 6.85352C1.53344 6.85352 1.00684 7.38281 1.00684 8.03425C1.00684 8.68569 1.53344 9.21499 2.18157 9.21499C2.8297 9.21499 3.3563 8.68569 3.3563 8.03425C3.3563 7.38281 2.8297 6.85352 2.18157 6.85352Z" fill="white" fill-opacity="0.45"/>
  <path d="M2.18157 10.7656C1.53344 10.7656 1.00684 11.2949 1.00684 11.9464C1.00684 12.5978 1.53344 13.1271 2.18157 13.1271C2.8297 13.1271 3.3563 12.5978 3.3563 11.9464C3.3563 11.2949 2.8297 10.7656 2.18157 10.7656Z" fill="white" fill-opacity="0.45"/>
</svg>