<svg xmlns="http://www.w3.org/2000/svg" width="16" height="16" viewBox="0 0 16 16" fill="none">
<path d="M8.75 3.825L8.75 13.1L11.75 10.1L12.825 11.175L8 16L3.175 11.175L4.25 10.1L7.25 13.1L7.25 3.825L8.75 3.825ZM14.5 1.31134e-07C14.9 9.61651e-08 15.25 0.15 15.55 0.45C15.85 0.75 16 1.1 16 1.5L16 5.075L14.5 5.075L14.5 1.5L1.5 1.5L1.5 5.075L-9.55094e-07 5.075L-1.26763e-06 1.5C-1.3026e-06 1.1 0.149998 0.750001 0.449998 0.450001C0.749999 0.150001 1.1 1.3026e-06 1.5 1.26763e-06L14.5 1.31134e-07Z" fill="#80EDB0"/>
</svg>