<svg xmlns="http://www.w3.org/2000/svg" width="16" height="16" viewBox="0 0 16 16" fill="none">
  <path d="M12.1762 3.34023C10.7043 1.86836 8.30746 1.86836 6.83715 3.34023L2.75902 7.41523C2.73246 7.4418 2.7184 7.47773 2.7184 7.51523C2.7184 7.55273 2.73246 7.58867 2.75902 7.61523L3.33559 8.1918C3.36194 8.21804 3.39762 8.23277 3.4348 8.23277C3.47199 8.23277 3.50767 8.21804 3.53402 8.1918L7.61215 4.1168C8.1184 3.61055 8.79184 3.33242 9.50746 3.33242C10.2231 3.33242 10.8965 3.61055 11.4012 4.1168C11.9075 4.62305 12.1856 5.29648 12.1856 6.01055C12.1856 6.72617 11.9075 7.39805 11.4012 7.9043L7.24496 12.059L6.57152 12.7324C5.94184 13.3621 4.9184 13.3621 4.28871 12.7324C3.98402 12.4277 3.81684 12.023 3.81684 11.5918C3.81684 11.1605 3.98402 10.7559 4.28871 10.4512L8.41215 6.3293C8.51684 6.22617 8.65434 6.16836 8.80121 6.16836H8.80277C8.94965 6.16836 9.08559 6.22617 9.18871 6.3293C9.2934 6.43398 9.34965 6.57148 9.34965 6.71836C9.34965 6.86367 9.29184 7.00117 9.18871 7.1043L5.8184 10.4715C5.79184 10.498 5.77777 10.534 5.77777 10.5715C5.77777 10.609 5.79184 10.6449 5.8184 10.6715L6.39496 11.248C6.42132 11.2743 6.45699 11.289 6.49418 11.289C6.53137 11.289 6.56704 11.2743 6.5934 11.248L9.96215 7.8793C10.2731 7.56836 10.4434 7.15586 10.4434 6.7168C10.4434 6.27773 10.2715 5.86367 9.96215 5.5543C9.31996 4.91211 8.27621 4.91367 7.63402 5.5543L7.23402 5.95586L3.51215 9.67617C3.25954 9.9273 3.0593 10.2261 2.92305 10.5552C2.78679 10.8843 2.71723 11.2372 2.7184 11.5934C2.7184 12.3168 3.00121 12.9965 3.51215 13.5074C4.04184 14.0355 4.73559 14.2996 5.42934 14.2996C6.12309 14.2996 6.81684 14.0355 7.34496 13.5074L12.1762 8.6793C12.8871 7.9668 13.2809 7.01836 13.2809 6.01055C13.2825 5.00117 12.8887 4.05273 12.1762 3.34023Z" fill="#999999"/>
</svg>