<svg height="14" viewBox="0 0 16 14" width="16" xmlns="http://www.w3.org/2000/svg"><path d="m647.9149 216.6012.17-1-2.585-.425v-2.075c0-.04 0-.075 0-.115l2.53-.68-.255-.965-2.415.645c-.1644-.6215-.4601-1.2007-.8672-1.6983-.4071-.4977-.9161-.9023-1.4928-1.1867v-1.49997h-1v1.11497c-.6578-.1533-1.3421-.1533-2 0v-1.11497h-1v1.49997c-.5784.2876-1.0881.6964-1.4944 1.1985-.4064.5021-.6999 1.0859-.8606 1.7115l-2.41498-.67-.23.965 2.49998.68v.115 2.075l-2.57998.425.16 1 2.41998-.41c.0114.617.1511 1.2249.41 1.785l-2.26498 2.27.70998.71 2.095-2.1c.4208.5402.9593.9772 1.5745 1.2778s1.2908.4568 1.9755.4568 1.3604-.1562 1.9756-.4568 1.1537-.7376 1.5744-1.2778l2.095 2.1.71-.71-2.27-2.27c.2607-.5597.402-1.1676.415-1.785zm-7.415 2.96c-.8323-.1201-1.5935-.5359-2.1444-1.1712-.5509-.6354-.8546-1.4478-.8556-2.2888v-3h3zm-2.855-7.46c.2149-.723.6576-1.3573 1.2621-1.8083.6046-.451 1.3387-.6947 2.0929-.6947.7543 0 1.4884.2437 2.0929.6947.6046.451 1.0473 1.0853 1.2621 1.8083zm6.855 4c-.001.841-.3047 1.6534-.8556 2.2888-.5509.6353-1.3121 1.0511-2.1444 1.1712v-6.46h3z" fill="#6affaf" transform="translate(-633 -207)"/></svg>