<svg xmlns="http://www.w3.org/2000/svg" width="24" height="24" viewBox="0 0 24 24" fill="none">
  <path d="M16.5 15.4999L16.5 6.5L9.5 6.5L9.5 8L8.5 8L8.5 6.5C8.5 5.94772 8.94771 5.5 9.5 5.5L16.5 5.5C17.0523 5.5 17.5 5.94771 17.5 6.5L17.5 15.4999C17.5 16.0521 17.0523 16.4998 16.5 16.4999L15.001 16.4999L15.001 15.4999L16.5 15.4999Z" fill="#F5F5F5"/>
  <path fill-rule="evenodd" clip-rule="evenodd" d="M10.4997 16.7926L10.4997 14.5L8.20711 14.5L10.4997 16.7926ZM11.4997 17.5L11.2071 17.5L10.4997 16.7926V18C10.4997 18.1345 10.5529 18.2567 10.6394 18.3465L6.65359 14.3607C6.5589 14.2697 6.5 14.1417 6.5 14L6.5 8.5C6.5 7.94771 6.94772 7.5 7.5 7.5L14.5 7.5C15.0523 7.5 15.5 7.94772 15.5 8.5V17.4999C15.5 18.0521 15.0523 18.4998 14.5 18.4999L11 18.5C11.2762 18.5 11.4997 18.2761 11.4997 18V17.5ZM11.4997 17.5V14C11.4997 13.7239 11.2759 13.5 10.9997 13.5L7.5 13.5L7.5 8.5L14.5 8.5V17.4999L11.4997 17.5ZM11 18.5C10.8674 18.5 10.7402 18.4473 10.6464 18.3536L10.6394 18.3465C10.7305 18.4411 10.8584 18.5 11 18.5Z" fill="#F5F5F5"/>
  <path d="M11 18.5C11.2762 18.5 11.4997 18.2761 11.4997 18V17.5L11.2071 17.5L10.4997 16.7926V18C10.4997 18.1345 10.5529 18.2567 10.6394 18.3465L10.6464 18.3536C10.7402 18.4473 10.8674 18.5 11 18.5Z" fill="#F5F5F5"/>
</svg>