<svg xmlns="http://www.w3.org/2000/svg" width="24" height="24" viewBox="0 0 24 24" fill="none">
  <path d="M12.0752 17.05C12.5584 17.05 12.9502 16.6582 12.9502 16.175C12.9502 15.6917 12.5584 15.3 12.0752 15.3C11.5919 15.3 11.2002 15.6917 11.2002 16.175C11.2002 16.6582 11.5919 17.05 12.0752 17.05Z" fill="#F5F5F5"/>
  <path d="M12.75 7.00001H11.8125C11.4429 6.99918 11.0768 7.07137 10.7352 7.21242C10.3936 7.35347 10.0833 7.5606 9.82193 7.82193C9.5606 8.08326 9.35347 8.39364 9.21242 8.73524C9.07137 9.07684 8.99918 9.44293 9.00001 9.81251V10.125H10.25V9.81251C10.25 9.39811 10.4146 9.00068 10.7077 8.70765C11.0007 8.41463 11.3981 8.25001 11.8125 8.25001H12.75C13.1644 8.25001 13.5618 8.41463 13.8549 8.70765C14.1479 9.00068 14.3125 9.39811 14.3125 9.81251C14.3125 10.2269 14.1479 10.6243 13.8549 10.9174C13.5618 11.2104 13.1644 11.375 12.75 11.375H11.5V14.1875H12.75V12.625C13.4959 12.625 14.2113 12.3287 14.7387 11.8012C15.2662 11.2738 15.5625 10.5584 15.5625 9.81251C15.5625 9.06659 15.2662 8.35122 14.7387 7.82377C14.2113 7.29632 13.4959 7.00001 12.75 7.00001Z" fill="#F5F5F5"/>
</svg>