<svg xmlns="http://www.w3.org/2000/svg" width="17" height="16" viewBox="0 0 17 16" fill="none">
  <path d="M14.8492 4.58012H4.90634C4.7038 4.58012 4.53809 4.41356 4.53809 4.20998C4.53809 4.00641 4.7038 3.83984 4.90634 3.83984H14.8492C15.0518 3.83984 15.2175 4.00641 15.2175 4.20998C15.2175 4.41356 15.0518 4.58012 14.8492 4.58012Z" fill="white" fill-opacity="0.45"/>
  <path d="M14.8492 8.65238H4.90634C4.7038 8.65238 4.53809 8.48582 4.53809 8.28225C4.53809 8.07867 4.7038 7.91211 4.90634 7.91211H14.8492C15.0518 7.91211 15.2175 8.07867 15.2175 8.28225C15.2175 8.48582 15.0518 8.65238 14.8492 8.65238Z" fill="white" fill-opacity="0.45"/>
  <path d="M14.8492 12.3536H4.90634C4.7038 12.3536 4.53809 12.187 4.53809 11.9834C4.53809 11.7798 4.7038 11.6133 4.90634 11.6133H14.8492C15.0518 11.6133 15.2175 11.7798 15.2175 11.9834C15.2175 12.187 15.0518 12.3536 14.8492 12.3536Z" fill="white" fill-opacity="0.45"/>
  <path d="M1.43794 3.75508C1.40111 3.77359 1.36797 3.78469 1.33482 3.78469C1.30536 3.78469 1.27959 3.77729 1.25749 3.76619C1.23171 3.75508 1.2133 3.74028 1.19489 3.72177C1.17647 3.70326 1.16174 3.68105 1.15438 3.65514C1.14333 3.62923 1.13965 3.60333 1.13965 3.57742C1.13965 3.5367 1.1507 3.50339 1.17279 3.47378C1.19489 3.44417 1.22803 3.41455 1.2759 3.38864L1.8246 3.07403C1.85775 3.05553 1.89089 3.03702 1.92403 3.02221C1.96086 3.00741 1.99768 3 2.03451 3C2.13394 3 2.20391 3.03332 2.25178 3.10364C2.29965 3.17397 2.32175 3.2739 2.32175 3.40715V5.01355C2.32175 5.06907 2.31806 5.11719 2.30702 5.1653C2.29965 5.21342 2.28124 5.25414 2.25914 5.29115C2.23705 5.32816 2.20759 5.35778 2.16708 5.37628C2.13025 5.39849 2.0787 5.4096 2.01978 5.4096C1.91667 5.4096 1.84302 5.37258 1.79514 5.29855C1.74727 5.22453 1.72517 5.11718 1.72517 4.97283V3.57742L1.44162 3.75138L1.43794 3.75508Z" fill="white" fill-opacity="0.45"/>
  <path d="M1.84646 7.24515C1.80595 7.24515 1.76544 7.24515 1.72125 7.25625C1.68074 7.26365 1.64023 7.27106 1.59973 7.28216C1.55922 7.29327 1.51871 7.30437 1.48188 7.31918C1.44506 7.33398 1.40823 7.34879 1.37141 7.35989C1.34195 7.371 1.31617 7.3747 1.29039 7.3747C1.26093 7.3747 1.23515 7.3673 1.21306 7.35989C1.19096 7.34879 1.16887 7.33398 1.15046 7.31547C1.13204 7.29697 1.12099 7.27476 1.10995 7.24885C1.0989 7.22294 1.09522 7.19703 1.09522 7.16742C1.09522 7.12671 1.10626 7.08969 1.12836 7.05268C1.15046 7.01566 1.19096 6.98605 1.24252 6.96014C1.29776 6.93794 1.353 6.91573 1.41192 6.89722C1.47084 6.87871 1.52976 6.86021 1.58868 6.8491C1.6476 6.8343 1.70652 6.82319 1.76544 6.81579C1.82436 6.80839 1.8796 6.80469 1.93116 6.80469C2.049 6.80469 2.15947 6.81949 2.2589 6.8454C2.35833 6.87501 2.44671 6.91572 2.51668 6.96754C2.58665 7.01936 2.64557 7.08599 2.68608 7.16742C2.72659 7.24515 2.74868 7.33768 2.74868 7.44132C2.74868 7.55606 2.71922 7.67451 2.66398 7.79665C2.60506 7.9188 2.53141 8.03724 2.43567 8.15199C2.33992 8.27043 2.22944 8.38147 2.10792 8.49251C1.98639 8.60355 1.8575 8.70349 1.72493 8.79973H2.44303C2.48722 8.79973 2.52773 8.79973 2.56455 8.81083C2.60506 8.81823 2.63821 8.82933 2.66767 8.84784C2.69713 8.86265 2.7229 8.88486 2.74132 8.91447C2.75973 8.94038 2.76709 8.97369 2.76709 9.0144C2.76709 9.08473 2.745 9.14025 2.70449 9.17726C2.66398 9.21428 2.60506 9.23279 2.52773 9.23279H1.29776C1.25725 9.23279 1.22042 9.22908 1.1836 9.22168C1.14677 9.21428 1.11731 9.19947 1.09153 9.18097C1.06576 9.16246 1.04366 9.13655 1.02893 9.10693C1.0142 9.07732 1.00684 9.04031 1.00684 8.9959C1.00684 8.88486 1.05839 8.78492 1.15782 8.69979L1.39719 8.49251C1.43033 8.4629 1.46347 8.43699 1.49293 8.40738C1.52239 8.37776 1.55185 8.35556 1.57395 8.33335L1.64023 8.27043C1.71757 8.1964 1.79122 8.12607 1.8575 8.05575C1.92379 7.98542 1.97903 7.9151 2.02322 7.84847C2.07109 7.78185 2.10424 7.71893 2.13001 7.6597C2.15579 7.60048 2.16684 7.54866 2.16684 7.49684C2.16684 7.45243 2.15579 7.41541 2.13738 7.3858C2.11897 7.35619 2.09319 7.32658 2.06373 7.30437C2.03427 7.28216 1.99744 7.26735 1.95325 7.25625C1.91274 7.24515 1.86855 7.24145 1.82436 7.24145L1.84646 7.24515Z" fill="white" fill-opacity="0.45"/>
  <path d="M1.79056 11.9385C1.8458 11.9385 1.89736 11.9311 1.94891 11.92C2.00047 11.9089 2.04098 11.8904 2.07412 11.8645C2.11095 11.8386 2.13672 11.8053 2.15882 11.7683C2.18092 11.7275 2.18828 11.6831 2.18828 11.6313C2.18828 11.5832 2.17723 11.5425 2.15882 11.5055C2.14041 11.4684 2.11095 11.4388 2.0778 11.4166C2.04466 11.3907 2.00415 11.3759 1.95628 11.3611C1.90841 11.3463 1.86422 11.3426 1.81266 11.3426C1.76847 11.3426 1.72428 11.3426 1.67641 11.35C1.62853 11.3574 1.58434 11.3648 1.54015 11.3722L1.44441 11.3907C1.41863 11.3981 1.40021 11.4018 1.38548 11.4018C1.37075 11.4018 1.35602 11.4055 1.34498 11.4055C1.28237 11.4055 1.2345 11.387 1.19399 11.35C1.15348 11.313 1.13507 11.2686 1.13507 11.2094C1.13507 11.1168 1.19399 11.0391 1.31552 10.9836C1.43704 10.928 1.62117 10.8984 1.8679 10.8984C2.01152 10.8984 2.13672 10.9132 2.25088 10.9466C2.36136 10.9762 2.45711 11.0243 2.53076 11.0798C2.60809 11.139 2.66701 11.2056 2.70384 11.2871C2.74434 11.3685 2.76276 11.4573 2.76276 11.5536C2.76276 11.6239 2.75171 11.6868 2.72961 11.746C2.70752 11.8053 2.67806 11.8608 2.63755 11.9089C2.60073 11.957 2.55654 11.9977 2.50498 12.0274C2.45342 12.0607 2.39819 12.0829 2.34295 12.0903V12.0977C2.42028 12.1088 2.48657 12.131 2.54549 12.168C2.60441 12.2013 2.65228 12.242 2.69279 12.2938C2.7333 12.3457 2.76276 12.4012 2.78485 12.4678C2.80695 12.5344 2.81431 12.6048 2.81431 12.6825C2.81431 12.8046 2.78854 12.9083 2.74066 12.9934C2.69279 13.0822 2.6265 13.1526 2.5418 13.2081C2.45711 13.2636 2.36136 13.3043 2.2472 13.3339C2.13304 13.3598 2.01152 13.3747 1.88263 13.3747C1.84212 13.3747 1.79793 13.3747 1.75006 13.3673C1.70218 13.3635 1.65799 13.3561 1.60644 13.345C1.55856 13.3376 1.50701 13.3265 1.45914 13.3117C1.41126 13.2969 1.36339 13.2821 1.3192 13.2673C1.26028 13.2451 1.2124 13.2155 1.17558 13.1785C1.13875 13.1415 1.12402 13.097 1.12402 13.0452C1.12402 13.0193 1.12771 12.9934 1.13875 12.9675C1.1498 12.9416 1.16453 12.9231 1.18294 12.9046C1.20136 12.8861 1.22345 12.8713 1.25291 12.8639C1.28237 12.8565 1.31183 12.8491 1.34498 12.8491H1.35971C1.38548 12.8565 1.41126 12.8639 1.44809 12.875C1.48123 12.8861 1.51806 12.8935 1.55856 12.9046C1.59907 12.9157 1.63958 12.9231 1.68745 12.9305C1.73533 12.9379 1.77583 12.9416 1.82371 12.9416C1.87895 12.9416 1.9305 12.9379 1.97838 12.9268C2.02625 12.9157 2.06676 12.9009 2.10358 12.875C2.14041 12.8528 2.16618 12.8194 2.18828 12.7824C2.21038 12.7454 2.21774 12.6973 2.21774 12.6455C2.21774 12.5381 2.18092 12.4567 2.10358 12.3975C2.02625 12.3383 1.91945 12.3087 1.7832 12.3087H1.66536C1.60644 12.3087 1.56593 12.2901 1.53279 12.2531C1.50333 12.2161 1.48491 12.1754 1.48491 12.1236C1.48491 12.1014 1.4886 12.0792 1.49596 12.0533C1.50333 12.0311 1.51437 12.0125 1.5291 11.994C1.54383 11.9755 1.56225 11.9644 1.58434 11.9533C1.60644 11.9422 1.63222 11.9385 1.66168 11.9385H1.7832H1.79056Z" fill="white" fill-opacity="0.45"/>
</svg>