<svg xmlns="http://www.w3.org/2000/svg" width="20" height="20" viewBox="0 0 20 20" fill="none">
  <path d="M17.4523 10.7542L3.17635 16.9363C2.88729 17.0424 2.61897 17.0159 2.37139 16.8568C2.1238 16.6976 2 16.4759 2 16.1917V11.6841C2 11.1583 2.40731 10.7222 2.93198 10.6865L13 10L2.93198 9.31354C2.40731 9.27777 2 8.84174 2 8.31586V3.80831C2 3.52406 2.1238 3.30237 2.37139 3.14322C2.61897 2.98408 2.88729 2.95756 3.17635 3.06366L17.4523 9.24531C17.8174 9.37891 18 9.63039 18 9.99976C18 10.3691 17.8174 10.6206 17.4523 10.7542Z" fill="#464646"/>
</svg>