<svg height="12" viewBox="0 0 16 12" width="16" xmlns="http://www.w3.org/2000/svg"><path d="m558 152c1.73844.065374 3.4196.638714 4.8358 1.64916 1.4161 1.01044 2.5051 2.4137 3.1324 4.03633.0424.11719.0424.2455 0 .36268-.6273 1.62264-1.7163 3.02589-3.1324 4.03633-1.4162 1.0105-3.09736 1.5838-4.8358 1.6492-1.73844-.0654-3.41962-.6387-4.83576-1.6492-1.41614-1.01044-2.505162-2.41369-3.132466-4.03633-.042365-.11718-.042365-.24549 0-.36268.627304-1.62263 1.716326-3.02589 3.132466-4.03633 1.41614-1.010446 3.09732-1.583786 4.83576-1.64916zm0 1.0667c-2.82675 0-5.8135 2.09606-6.8962 4.80013 1.0827 2.70408 4.06945 4.80017 6.8962 4.80017 2.8267 0 5.8135-2.09609 6.8962-4.80017-1.0827-2.70407-4.0695-4.80013-6.8962-4.80013zm.00014 1.60005c.84872 0 1.66267.33715 2.26276.93728.6002.60014.9373 1.41409.9373 2.26281 0 .63292-.1877 1.25162-.5393 1.77787-.3516.52626-.8514.93642-1.43614 1.17863-.58474.2422-1.22817.30558-1.84893.1821-.62075-.12348-1.19095-.42825-1.6385-.8758-.44754-.44754-.75231-1.01774-.87579-1.63849-.12348-.62076-.0601-1.26419.1821-1.84893.24221-.58474.65237-1.08453 1.17863-1.43616.52625-.35163 1.14495-.53931 1.77787-.53931zm.81642 1.22909c-.38983-.16147-.81879-.20372-1.23262-.1214-.41384.08231-.79398.2855-1.09234.58386s-.50154.6785-.58386 1.09233c-.08232.41384-.04007.8428.1214 1.23262.16147.38983.43492.72302.78575.95744.35084.23442.76331.35954 1.18525.35954.56581 0 1.10845-.22477 1.50854-.62485.40009-.40009.62482-.94273.62482-1.50854 0-.42195-.1251-.83442-.35951-1.18525-.23442-.35084-.56761-.62428-.95743-.78575z" fill="#6affaf" transform="translate(-550 -152)"/></svg>