<svg xmlns="http://www.w3.org/2000/svg" width="24" height="24" viewBox="0 0 24 24" fill="none">
  <path fill-rule="evenodd" clip-rule="evenodd" d="M9.75 8C9.75 7.72386 9.97386 7.5 10.25 7.5H16.25C16.5261 7.5 16.75 7.72386 16.75 8C16.75 8.27614 16.5261 8.5 16.25 8.5H10.25C9.97386 8.5 9.75 8.27614 9.75 8Z" fill="#F5F5F5"/>
  <path fill-rule="evenodd" clip-rule="evenodd" d="M9.75 11.5C9.75 11.2239 9.97386 11 10.25 11H16.25C16.5261 11 16.75 11.2239 16.75 11.5C16.75 11.7761 16.5261 12 16.25 12H10.25C9.97386 12 9.75 11.7761 9.75 11.5Z" fill="#F5F5F5"/>
  <path fill-rule="evenodd" clip-rule="evenodd" d="M9.75 15C9.75 14.7239 9.97386 14.5 10.25 14.5H16.25C16.5261 14.5 16.75 14.7239 16.75 15C16.75 15.2761 16.5261 15.5 16.25 15.5H10.25C9.97386 15.5 9.75 15.2761 9.75 15Z" fill="#F5F5F5"/>
  <path fill-rule="evenodd" clip-rule="evenodd" d="M7.75 7C8.02614 7 8.25 7.22386 8.25 7.5V15.5C8.25 15.7761 8.02614 16 7.75 16C7.47386 16 7.25 15.7761 7.25 15.5V7.5C7.25 7.22386 7.47386 7 7.75 7Z" fill="#F5F5F5"/>
</svg>