<svg width="18" height="18" viewBox="0 0 18 18" fill="none" xmlns="http://www.w3.org/2000/svg">
<path d="M9 0C7.21997 0 5.47991 0.527841 3.99987 1.51677C2.51983 2.50571 1.36628 3.91131 0.685088 5.55585C0.00389957 7.20038 -0.17433 9.00998 0.172936 10.7558C0.520203 12.5016 1.37737 14.1053 2.63604 15.364C3.89471 16.6226 5.49836 17.4798 7.24419 17.8271C8.99002 18.1743 10.7996 17.9961 12.4442 17.3149C14.0887 16.6337 15.4943 15.4802 16.4832 14.0001C17.4722 12.5201 18 10.78 18 9C18 6.61305 17.0518 4.32387 15.364 2.63604C13.6761 0.948211 11.387 0 9 0ZM9 16.7143C7.47426 16.7143 5.98278 16.2618 4.71418 15.4142C3.44557 14.5665 2.45681 13.3617 1.87293 11.9521C1.28906 10.5425 1.13629 8.99144 1.43395 7.49502C1.7316 5.99859 2.46632 4.62404 3.54518 3.54518C4.62404 2.46631 5.9986 1.7316 7.49502 1.43394C8.99145 1.13628 10.5425 1.28905 11.9521 1.87293C13.3617 2.4568 14.5665 3.44556 15.4142 4.71417C16.2619 5.98278 16.7143 7.47426 16.7143 9C16.7143 11.046 15.9015 13.0081 14.4548 14.4548C13.0081 15.9015 11.046 16.7143 9 16.7143Z" fill="#F5F5F5"/>
<path d="M8.8252 14.05C9.30844 14.05 9.7002 13.6582 9.7002 13.175C9.7002 12.6917 9.30844 12.3 8.8252 12.3C8.34195 12.3 7.9502 12.6917 7.9502 13.175C7.9502 13.6582 8.34195 14.05 8.8252 14.05Z" fill="#F5F5F5"/>
<path d="M9.50001 4.00001H8.56251C8.19293 3.99918 7.82684 4.07137 7.48524 4.21242C7.14364 4.35347 6.83326 4.5606 6.57193 4.82193C6.3106 5.08326 6.10347 5.39364 5.96242 5.73524C5.82137 6.07684 5.74918 6.44293 5.75001 6.81251V7.12501H7.00001V6.81251C7.00001 6.39811 7.16463 6.00068 7.45765 5.70765C7.75068 5.41463 8.14811 5.25001 8.56251 5.25001H9.50001C9.91441 5.25001 10.3118 5.41463 10.6049 5.70765C10.8979 6.00068 11.0625 6.39811 11.0625 6.81251C11.0625 7.22691 10.8979 7.62434 10.6049 7.91736C10.3118 8.21039 9.91441 8.37501 9.50001 8.37501H8.25001V11.1875H9.50001V9.62501C10.2459 9.62501 10.9613 9.32869 11.4887 8.80124C12.0162 8.2738 12.3125 7.55843 12.3125 6.81251C12.3125 6.06659 12.0162 5.35122 11.4887 4.82377C10.9613 4.29632 10.2459 4.00001 9.50001 4.00001Z" fill="#F5F5F5"/>
</svg>
