<svg width="18" height="18" viewBox="0 0 18 18" fill="none" xmlns="http://www.w3.org/2000/svg">
<path d="M15.8756 9.46274C15.8756 9.31052 15.8756 9.15831 15.8756 9C15.8756 8.84169 15.8756 8.68948 15.8756 8.53117L17.0763 7.50828C17.2976 7.31834 17.4429 7.05834 17.4863 6.77423C17.5298 6.49012 17.4688 6.20018 17.3139 5.95567L15.8381 3.5202C15.7284 3.33527 15.5707 3.18166 15.3809 3.07479C15.191 2.96793 14.9756 2.91155 14.7562 2.91134C14.6203 2.91032 14.4851 2.93089 14.356 2.97222L12.8364 3.47149C12.574 3.30174 12.3004 3.14919 12.0172 3.01484L11.6983 1.4805C11.6411 1.20018 11.4845 0.948374 11.2558 0.769161C11.0271 0.589949 10.741 0.494748 10.4476 0.500224H7.52092C7.22744 0.494748 6.94134 0.589949 6.71268 0.769161C6.48403 0.948374 6.3274 1.20018 6.27022 1.4805L5.95129 3.01484C5.66609 3.14916 5.39033 3.30171 5.12583 3.47149L3.63749 2.94787C3.50698 2.91476 3.37182 2.90242 3.23727 2.91134C3.01794 2.91155 2.80253 2.96793 2.61264 3.07479C2.42276 3.18166 2.26507 3.33527 2.15541 3.5202L0.67958 5.95567C0.533615 6.19982 0.479375 6.48578 0.52615 6.76459C0.572924 7.04339 0.717803 7.29769 0.935974 7.48392L2.11789 8.53726C2.11789 8.68948 2.11789 8.84169 2.11789 9C2.11789 9.15831 2.11789 9.31052 2.11789 9.46883L0.935974 10.4917C0.711641 10.6793 0.562799 10.9381 0.515862 11.2223C0.468925 11.5066 0.526929 11.7978 0.67958 12.0443L2.15541 14.4798C2.26507 14.6647 2.42276 14.8183 2.61264 14.9252C2.80253 15.0321 3.01794 15.0884 3.23727 15.0887C3.37319 15.0897 3.50837 15.0691 3.63749 15.0278L5.15709 14.5285C5.41945 14.6983 5.69313 14.8508 5.9763 14.9852L6.29523 16.5195C6.35242 16.7998 6.50905 17.0516 6.7377 17.2308C6.96635 17.4101 7.25246 17.5053 7.54594 17.4998H10.4976C10.7911 17.5053 11.0772 17.4101 11.3058 17.2308C11.5345 17.0516 11.6911 16.7998 11.7483 16.5195L12.0672 14.9852C12.3524 14.8508 12.6282 14.6983 12.8927 14.5285L14.406 15.0278C14.5352 15.0691 14.6703 15.0897 14.8063 15.0887C15.0256 15.0884 15.241 15.0321 15.4309 14.9252C15.6208 14.8183 15.7785 14.6647 15.8881 14.4798L17.3139 12.0443C17.4599 11.8002 17.5141 11.5142 17.4673 11.2354C17.4206 10.9566 17.2757 10.7023 17.0575 10.5161L15.8756 9.46274ZM14.7562 13.8709L12.6113 13.1646C12.1092 13.5787 11.5353 13.9024 10.9166 14.1206L10.4726 16.3064H7.52092L7.07692 14.1449C6.46309 13.9206 5.89233 13.5975 5.38847 13.189L3.23727 13.8709L1.76144 11.4355L3.46239 9.97419C3.34676 9.34392 3.34676 8.6987 3.46239 8.06843L1.76144 6.56453L3.23727 4.12907L5.38222 4.83535C5.88434 4.42126 6.4582 4.09756 7.07692 3.87943L7.52092 1.6936H10.4726L10.9166 3.85508C11.5304 4.0794 12.1012 4.40254 12.605 4.811L14.7562 4.12907L16.2321 6.56453L14.5311 8.02581C14.6467 8.65608 14.6467 9.3013 14.5311 9.93157L16.2321 11.4355L14.7562 13.8709Z" fill="#F5F5F5"/>
<path d="M8.99992 12.2498C8.35715 12.2498 7.72881 12.0592 7.19436 11.7021C6.65991 11.345 6.24336 10.8375 5.99739 10.2436C5.75141 9.64976 5.68705 8.99631 5.81245 8.36589C5.93785 7.73547 6.24737 7.15639 6.70188 6.70188C7.15639 6.24737 7.73547 5.93785 8.36589 5.81245C8.99631 5.68705 9.64976 5.75141 10.2436 5.99739C10.8375 6.24336 11.345 6.65991 11.7021 7.19436C12.0592 7.72881 12.2498 8.35715 12.2498 8.99992C12.2542 9.42791 12.1731 9.85247 12.0113 10.2487C11.8495 10.645 11.6103 11.005 11.3076 11.3076C11.005 11.6103 10.645 11.8495 10.2487 12.0113C9.85247 12.1731 9.42791 12.2542 8.99992 12.2498ZM8.99992 6.83331C8.71357 6.82664 8.42884 6.87812 8.16296 6.98464C7.89708 7.09116 7.65557 7.25051 7.45304 7.45304C7.25051 7.65557 7.09116 7.89708 6.98464 8.16296C6.87812 8.42884 6.82664 8.71357 6.83331 8.99992C6.82664 9.28627 6.87812 9.57099 6.98464 9.83687C7.09116 10.1028 7.25051 10.3443 7.45304 10.5468C7.65557 10.7493 7.89708 10.9087 8.16296 11.0152C8.42884 11.1217 8.71357 11.1732 8.99992 11.1665C9.28627 11.1732 9.57099 11.1217 9.83687 11.0152C10.1028 10.9087 10.3443 10.7493 10.5468 10.5468C10.7493 10.3443 10.9087 10.1028 11.0152 9.83687C11.1217 9.57099 11.1732 9.28627 11.1665 8.99992C11.1732 8.71357 11.1217 8.42884 11.0152 8.16296C10.9087 7.89708 10.7493 7.65557 10.5468 7.45304C10.3443 7.25051 10.1028 7.09116 9.83687 6.98464C9.57099 6.87812 9.28627 6.82664 8.99992 6.83331Z" fill="#F5F5F5"/>
</svg>
