<svg xmlns="http://www.w3.org/2000/svg" width="17" height="16" viewBox="0 0 17 16" fill="none">
  <path d="M5.00684 4.72547C5.00684 4.62183 5.02525 4.5293 5.06207 4.44046C5.0989 4.35163 5.15046 4.2776 5.21674 4.21098C5.28303 4.14435 5.36036 4.09253 5.44874 4.05552C5.53712 4.01851 5.63287 4 5.73598 4L8.60469 4.0074C8.96189 4.0074 9.28964 4.05922 9.59161 4.16286C9.89358 4.2665 10.1514 4.40715 10.3686 4.58852C10.5859 4.76989 10.7553 4.98456 10.8768 5.23626C10.9983 5.48795 11.0573 5.76185 11.0573 6.06536C11.0573 6.29115 11.0168 6.50583 10.9394 6.7094C10.8621 6.91298 10.7516 7.09805 10.6117 7.26091C10.4717 7.42377 10.306 7.56442 10.1145 7.67916C9.92304 7.7939 9.71313 7.87533 9.48113 7.92345V7.94566C9.76469 7.98638 10.0225 8.0641 10.2545 8.17885C10.4865 8.29359 10.6816 8.43794 10.8437 8.61191C11.0057 8.78587 11.1309 8.98945 11.223 9.21893C11.3114 9.44842 11.3556 9.70011 11.3556 9.97401C11.3556 10.2479 11.3077 10.5181 11.2082 10.7883C11.1088 11.0585 10.9505 11.2954 10.7332 11.5064C10.5159 11.7174 10.2361 11.8876 9.89358 12.0209C9.5511 12.1504 9.13497 12.217 8.64519 12.217H5.73966C5.63655 12.217 5.54081 12.1985 5.45242 12.1615C5.36404 12.1245 5.28671 12.0727 5.22042 12.0061C5.15414 11.9431 5.10258 11.8654 5.06576 11.7766C5.02893 11.6877 5.01052 11.5915 5.01052 11.4953V4.74027L5.00684 4.72547ZM6.47249 5.01047V7.55331H7.88291C8.11122 7.55331 8.32481 7.53111 8.53104 7.48299C8.73726 7.43487 8.91402 7.36084 9.06501 7.2535C9.21599 7.14986 9.33751 7.01291 9.4259 6.85005C9.51428 6.68719 9.55847 6.48732 9.55847 6.25784C9.55847 6.00614 9.51059 5.80257 9.41853 5.63971C9.32278 5.48055 9.19758 5.3547 9.03923 5.25846C8.88088 5.16593 8.70043 5.09931 8.49789 5.06599C8.29167 5.02898 8.07808 5.01047 7.85713 5.01047H6.47617H6.47249ZM6.47249 11.1955H7.905C8.21802 11.1955 8.49789 11.1733 8.73726 11.1288C8.97662 11.0844 9.17916 11.0104 9.34488 10.9031C9.51059 10.7957 9.63212 10.6514 9.71682 10.47C9.80152 10.2886 9.84202 10.0628 9.84202 9.79264C9.84202 9.50764 9.78679 9.27445 9.67631 9.09679C9.56583 8.91912 9.41116 8.78217 9.21231 8.68223C9.01345 8.5823 8.77408 8.51567 8.49789 8.47866C8.21802 8.44164 7.91237 8.42314 7.58094 8.42314H6.47249V11.1881V11.1955Z" fill="white" fill-opacity="0.45"/>
</svg>