<svg xmlns="http://www.w3.org/2000/svg" width="17" height="16" viewBox="0 0 17 16" fill="none">
  <path d="M8.68949 10.057C8.02152 10.057 7.39302 9.79758 6.92241 9.32456C6.48823 8.88816 6.23015 8.30833 6.19675 7.69188C6.18764 7.52403 6.31516 7.3806 6.48215 7.37145C6.64915 7.35924 6.79185 7.49046 6.80096 7.65831C6.82828 8.12523 7.0226 8.56468 7.35052 8.89427C7.70575 9.25133 8.17941 9.44969 8.68646 9.44969C9.19351 9.44969 9.66716 9.25438 10.0224 8.89427L12.8431 6.05919C13.1983 5.70214 13.3957 5.22607 13.3957 4.71643C13.3957 4.20678 13.2013 3.73071 12.8431 3.37365C12.4878 3.0166 12.0111 2.81824 11.5071 2.81824C11.0031 2.81824 10.5264 3.0166 10.1712 3.37365L8.46785 5.08568C8.34944 5.2047 8.15815 5.2047 8.03974 5.08568C7.92133 4.96667 7.92133 4.77441 8.03974 4.65539L9.74307 2.94336C10.2137 2.47034 10.8391 2.21094 11.5102 2.21094C12.1812 2.21094 12.8066 2.47034 13.2772 2.94336C13.7479 3.41638 14.0059 4.04809 14.0059 4.71948C14.0059 5.39086 13.7479 6.02257 13.2772 6.4956L10.4566 9.33067C9.98596 9.80369 9.3605 10.0631 8.68949 10.0631V10.057Z" fill="white" fill-opacity="0.45"/>
  <path d="M4.7549 13.5821C4.11425 13.5821 3.47664 13.338 2.98781 12.8466C2.01318 11.867 2.01318 10.274 2.98781 9.2944L5.80847 6.45932C6.7831 5.47971 8.36801 5.47971 9.34264 6.45932C9.75253 6.8713 10.0076 7.41757 10.0622 8.00045C10.0774 8.1683 9.95596 8.31783 9.78897 8.33309C9.61894 8.34835 9.4732 8.22323 9.45802 8.05844C9.41855 7.61593 9.22423 7.20394 8.91453 6.89267C8.17673 6.15109 6.97742 6.15109 6.23961 6.89267L3.41895 9.72774C2.68115 10.4693 2.68115 11.6748 3.41895 12.4163C4.15676 13.1579 5.35607 13.1579 6.09387 12.4163L7.83363 10.6677C7.95205 10.5487 8.14333 10.5487 8.26174 10.6677C8.38016 10.7867 8.38016 10.979 8.26174 11.098L6.52198 12.8466C6.03618 13.3349 5.39554 13.5821 4.7549 13.5821Z" fill="white" fill-opacity="0.45"/>
</svg>