<svg height="14" viewBox="0 0 10 14" width="10" xmlns="http://www.w3.org/2000/svg"><path d="m199.5 171c.9283 0 1.8185.36875 2.4749 1.0251.6564.6564 1.0251 1.5466 1.0251 2.4749v2.5h-1v-2.5c0-.3283-.0647-.6534-.1903-.9567s-.3098-.5789-.5419-.8111c-.2322-.2321-.5078-.4163-.8111-.5419s-.6284-.1903-.9567-.1903h-3c-.66304 0-1.29893.2634-1.76777.7322-.46884.4689-.73223 1.1048-.73223 1.7678v2.5h-1v-2.5c0-.9283.36875-1.8185 1.02513-2.4749.65637-.65635 1.54661-1.0251 2.47487-1.0251zm-1.500002-8c.928262 0 1.818502.36875 2.474902 1.02513.6564.65637 1.025098 1.54661 1.025098 2.47487 0 .69223-.205298 1.36892-.589898 1.9445-.3845.57557-.93117 1.02417-1.57071 1.28908-.63954.2649-1.34327.33422-2.0222.19917-.67894-.13505-1.30258-.46839-1.79206-.95788-.48949-.48948-.82283-1.11312-.95788-1.79205-.13505-.67894-.06573-1.38267.19917-2.02221.26491-.63954.71351-1.18617 1.28909-1.57075.57557-.38459 1.25226-.58986 1.944488-.58986zm.000002 1c-.66304 0-1.29892.26339-1.76777.73223-.46884.46884-.73223 1.10473-.73223 1.76777 0 .49445.14662.9778.42133 1.38893.2747.41112.66515.73155 1.12196.92077.45682.18922.95949.23873 1.44444.14226.48495-.09646.93041-.33456 1.28004-.68419s.58773-.79509.68423-1.28004c.0964-.48496.0469-.98762-.1423-1.44444-.1892-.45681-.50965-.84726-.92077-1.12196-.41113-.27471-.89448-.42133-1.38893-.42133z" fill="#fff" transform="translate(-193 -163)"/></svg>