<svg xmlns="http://www.w3.org/2000/svg" width="13" height="12" viewBox="0 0 13 12" fill="none">
<path d="M6.00684 0C2.69344 0 0.00683594 2.68661 0.00683594 6C0.00683594 9.31339 2.69344 12 6.00684 12C9.32023 12 12.0068 9.31339 12.0068 6C12.0068 2.68661 9.32023 0 6.00684 0ZM6.00684 10.9821C3.25594 10.9821 1.02469 8.75089 1.02469 6C1.02469 3.24911 3.25594 1.01786 6.00684 1.01786C8.75773 1.01786 10.989 3.24911 10.989 6C10.989 8.75089 8.75773 10.9821 6.00684 10.9821Z" fill="#999999"/>
<path d="M5.36377 3.64286C5.36377 3.81335 5.4315 3.97687 5.55206 4.09743C5.67262 4.21799 5.83613 4.28571 6.00663 4.28571C6.17712 4.28571 6.34064 4.21799 6.46119 4.09743C6.58175 3.97687 6.64948 3.81335 6.64948 3.64286C6.64948 3.47236 6.58175 3.30885 6.46119 3.18829C6.34064 3.06773 6.17712 3 6.00663 3C5.83613 3 5.67262 3.06773 5.55206 3.18829C5.4315 3.30885 5.36377 3.47236 5.36377 3.64286ZM6.32806 5.14286H5.6852C5.62627 5.14286 5.57806 5.19107 5.57806 5.25V8.89286C5.57806 8.95179 5.62627 9 5.6852 9H6.32806C6.38698 9 6.4352 8.95179 6.4352 8.89286V5.25C6.4352 5.19107 6.38698 5.14286 6.32806 5.14286Z" fill="#999999"/>
</svg>