<svg xmlns="http://www.w3.org/2000/svg" width="17" height="16" viewBox="0 0 17 16" fill="none">
  <path d="M7.91793 11.2782L7.91793 4.04527L5.68774 6.09216L4.85595 5.34456L8.5 2L12.1441 5.34456L11.3123 6.09216L9.08207 4.04527V11.2782H7.91793ZM3.93338 14C3.53003 14 3.1903 13.8723 2.91418 13.6168C2.63806 13.3613 2.5 13.0486 2.5 12.6786V11.4363H3.66416L3.66416 12.6786C3.66416 12.7418 3.69286 12.7998 3.75027 12.8525C3.80768 12.9052 3.87084 12.9315 3.93974 12.9315L13.0603 12.9315C13.1292 12.9315 13.1923 12.9052 13.2497 12.8525C13.3071 12.7998 13.3358 12.7418 13.3358 12.6786V11.4363H14.5V12.6786C14.5 13.0486 14.3607 13.3613 14.0822 13.6168C13.8037 13.8723 13.4627 14 13.0594 14L3.93338 14Z" fill="#F5F5F5"/>
</svg>