<svg xmlns="http://www.w3.org/2000/svg" width="16" height="16" viewBox="0 0 16 16" fill="none">
  <path fill-rule="evenodd" clip-rule="evenodd" d="M8.75415 1.16865C8.9953 0.939545 9.37508 0.944465 9.61021 1.17974L13.8205 5.39252C14.0551 5.62725 14.0604 6.00604 13.8325 6.24731L10.2822 10.0062L9.34574 13.5436C9.2896 13.7557 9.12447 13.9217 8.9127 13.9788C8.70092 14.036 8.47475 13.9756 8.31956 13.8206L1.17987 6.68785C1.02444 6.53256 0.963934 6.30598 1.02126 6.09387C1.07858 5.88175 1.24497 5.71651 1.45746 5.66069L5.00772 4.72798L8.75415 1.16865ZM9.1654 2.46982L5.7382 5.72586C5.66328 5.79704 5.5716 5.84813 5.47165 5.87439L2.80291 6.57551L8.43275 12.1999L9.13653 9.54145C9.16272 9.44249 9.21327 9.35167 9.28355 9.27725L12.5318 5.83819L9.1654 2.46982Z" fill="#464646"/>
  <path fill-rule="evenodd" clip-rule="evenodd" d="M5.49806 9.50333C5.73754 9.74286 5.73754 10.1312 5.49806 10.3707L2.53673 13.3325L1.66948 12.4651L4.63081 9.50333C4.87029 9.26381 5.25857 9.26381 5.49806 9.50333Z" fill="#464646"/>
</svg>