<svg height="38" viewBox="0 0 140 38" width="140" xmlns="http://www.w3.org/2000/svg"><g fill="none"><g fill="#fff"><path d="m55.7188 29.5814v-1.8618c0-2.6066-1.1794-3.4045-2.8306-3.8832 1.9395-.4522 3.3809-2.1013 3.3809-4.4684 0-2.846-1.7559-4.6546-5.3465-4.6546h-8.1247v17.6874h2.1753v-7.9261h4.901c2.4112 0 3.7479 1.0373 3.7479 3.5641v1.6224c0 1.2767.131 2.1544.3145 2.7396h2.1229c-.1573-.665-.3407-1.5161-.3407-2.8194zm-10.7456-6.7558v-6.3302h5.7135c2.2801 0 3.3023 1.0107 3.3023 3.0587 0 2.0215-.8911 3.2715-3.3285 3.2715z"/><path d="m65.1203 32.8263c4.3507 0 5.8708-2.5001 6.1329-4.5215h-1.9133c-.3931 1.6756-1.5725 2.8991-4.1409 2.8991-2.6209 0-4.3507-1.3299-4.5079-4.9738h10.5359c.0524-.3191.0524-.5851.0524-.9309 0-3.8832-2.2278-6.6228-6.1591-6.6228-4.3506 0-6.4997 3.0853-6.4997 7.0484 0 4.0162 1.9918 7.1015 6.4997 7.1015zm-4.3768-8.192c.2883-3.1385 1.9132-4.3354 4.403-4.3354 2.4375 0 3.9838 1.2767 4.0886 4.3354z"/><path d="m92.2955 24.0757v8.3251h2.0967v-8.5644c0-3.4045-1.4415-5.16-4.4293-5.16-2.5946 0-4.1147 1.3831-4.8748 3.6971-.3669-2.447-1.7822-3.6971-4.3244-3.6971-2.4899 0-3.9575 1.3565-4.7438 3.6173v-3.1917h-2.0967v13.2988h2.0967v-5.0802c0-4.5747 1.2842-6.8621 4.0886-6.8621 1.9394 0 3.014.9309 3.014 3.6172v8.3251h2.0704v-5.0802c0-4.5747 1.2843-6.8621 4.1148-6.8621 1.9133 0 2.9878.9309 2.9878 3.6172z"/><path d="m103.435 32.8263c4.351 0 5.871-2.5001 6.133-4.5215h-1.913c-.393 1.6756-1.573 2.8991-4.141 2.8991-2.621 0-4.3508-1.3299-4.508-4.9738h10.536c.052-.3191.052-.5851.052-.9309 0-3.8832-2.227-6.6228-6.159-6.6228-4.3504 0-6.4995 3.0853-6.4995 7.0484 0 4.0162 1.9918 7.1015 6.4995 7.1015zm-4.3766-8.192c.2883-3.1385 1.9136-4.3354 4.4026-4.3354 2.438 0 3.984 1.2767 4.089 4.3354z"/><path d="m117.502 18.6764c-4.115 0-6.002 2.979-6.002 7.075 0 4.0694 1.887 7.0749 6.002 7.0749 2.411 0 4.062-1.0905 4.953-2.9789v2.5534h2.097v-18.6183h-2.097v7.8463c-.891-1.8885-2.542-2.9524-4.953-2.9524zm-3.879 7.075c0-3.5907 1.31-5.3461 4.298-5.3461 2.778 0 4.534 1.5958 4.534 5.3461 0 3.7502-1.756 5.3461-4.534 5.3461-2.988 0-4.298-1.782-4.298-5.3461z"/><path d="m127.656 37.7203h2.489c2.359 0 2.883-.9841 3.696-3.1119l6.159-15.5064h-2.071l-4.062 10.2401-.393 1.2766-.446-1.2766-4.01-10.2401h-2.201l5.189 13.2988h.734l-1.441 3.5907h-3.643z"/><path d="m4.34195 0h15.61515l14.8616 14.654v17.9885h-22.4739l-12.3448-11.6437v-16.71124c0-2.36795 1.94397-4.28756 4.34195-4.28756z"/></g><path d="m.593811 4.48132c0-2.08937 1.715249-3.783136 3.831119-3.783136h6.60597 8.5482v7.129516 2.3227c0 2.3899-1.9619 4.3272-4.3821 4.3272l7.2732 6.4814h-6.1262l-6.89604-6.4814h-4.69243v6.4814h-4.161719zm10.542189 6.65298h2.7415c.9874 0 1.7878-.7904 1.7878-1.76544 0-1.69745 0-3.25354 0-5.09295 0 0-2.9452 0-4.5293 0h-4.76289c-.89336 0-1.61758.71514-1.61758 1.59732v5.26107z" fill="#1e1e1e"/><path d="m4.76548 10.6184h4.68248v3.9513h-4.68248z" fill="#fff"/></g></svg>