<svg width="148" height="28" viewBox="0 0 148 28" fill="none" xmlns="http://www.w3.org/2000/svg">
<path d="M87.1825 22.7849C85.9164 22.7849 84.7476 22.4627 83.6762 21.8181C82.6243 21.1541 81.7867 20.2361 81.1633 19.0642C80.54 17.8728 80.2283 16.5349 80.2283 15.0505C80.2283 13.5465 80.54 12.2086 81.1633 11.0367C81.7867 9.84532 82.6243 8.92734 83.6762 8.2828C84.7476 7.61873 85.9164 7.28669 87.1825 7.28669C88.0981 7.28669 88.8967 7.44294 89.5785 7.75545C90.2798 8.04842 90.8447 8.39999 91.2732 8.81015C91.7018 9.20078 91.9842 9.52305 92.1206 9.77696H92.2083V1.92529H95.4224V22.4334H92.2083V20.2947H92.1206C91.9842 20.5486 91.7018 20.8806 91.2732 21.2908C90.8447 21.6814 90.2798 22.033 89.5785 22.3455C88.8967 22.6384 88.0981 22.7849 87.1825 22.7849ZM87.8253 19.9431C88.6435 19.9431 89.3837 19.7478 90.046 19.3572C90.7278 18.947 91.2538 18.3708 91.6239 17.6286C92.0135 16.8864 92.2083 16.027 92.2083 15.0505C92.2083 14.0544 92.0135 13.1852 91.6239 12.443C91.2538 11.7008 90.7278 11.1344 90.046 10.7438C89.3837 10.3336 88.6435 10.1285 87.8253 10.1285C87.0267 10.1285 86.2962 10.3336 85.6339 10.7438C84.9716 11.1344 84.4456 11.7008 84.0561 12.443C83.6859 13.1852 83.5009 14.0544 83.5009 15.0505C83.5009 16.027 83.6859 16.8864 84.0561 17.6286C84.4456 18.3708 84.9716 18.947 85.6339 19.3572C86.2962 19.7478 87.0267 19.9431 87.8253 19.9431Z" fill="white"/>
<path d="M70.4387 22.7848C68.9972 22.7848 67.692 22.4528 66.5233 21.7887C65.3545 21.1051 64.4292 20.1774 63.7474 19.0055C63.0656 17.8141 62.7247 16.4957 62.7247 15.0504C62.7247 13.605 63.0656 12.2867 63.7474 11.0952C64.4292 9.90383 65.3545 8.97608 66.5233 8.31201C67.692 7.62841 68.9972 7.28661 70.4387 7.28661C71.8996 7.28661 73.2145 7.62841 74.3833 8.31201C75.552 8.97608 76.4676 9.90383 77.1299 11.0952C77.7922 12.2671 78.1234 13.5562 78.1234 14.9625V15.8414H65.9973C66.0947 16.6031 66.3479 17.2965 66.757 17.9215C67.1856 18.5465 67.7213 19.0446 68.3641 19.4157C69.0069 19.7672 69.6984 19.943 70.4387 19.943C71.4516 19.943 72.3087 19.7379 73.01 19.3278C73.7112 18.8981 74.2274 18.3707 74.5586 17.7457H77.8896C77.4026 19.152 76.526 20.3434 75.2598 21.32C74.0132 22.2966 72.4061 22.7848 70.4387 22.7848ZM74.7047 13.5855C74.6073 12.9605 74.3638 12.3843 73.9742 11.857C73.6041 11.3296 73.1074 10.9097 72.484 10.5972C71.8801 10.2847 71.1984 10.1284 70.4387 10.1284C69.6984 10.1284 69.0166 10.2847 68.3933 10.5972C67.7894 10.9097 67.2927 11.3296 66.9031 11.857C66.5135 12.3843 66.2408 12.9605 66.085 13.5855H74.7047Z" fill="white"/>
<path d="M37.1049 22.4333V7.63817H40.2898V9.77687H40.3774C40.767 9.07374 41.3514 8.48779 42.1306 8.01904C42.9292 7.53075 43.874 7.28661 44.9649 7.28661C46.1726 7.28661 47.1855 7.56005 48.0037 8.10693C48.8218 8.65381 49.4159 9.32765 49.7861 10.1284H49.9322C50.3607 9.32765 51.0133 8.65381 51.8899 8.10693C52.7664 7.56005 53.8183 7.28661 55.0455 7.28661C56.1559 7.28661 57.1299 7.53075 57.9675 8.01904C58.8051 8.50732 59.4479 9.22999 59.896 10.187C60.3635 11.1245 60.5972 12.2574 60.5972 13.5855V22.4333H57.4123V13.8785C57.4123 12.648 57.1299 11.7203 56.5649 11.0952C56 10.4507 55.2306 10.1284 54.2566 10.1284C53.5748 10.1284 52.9417 10.314 52.3574 10.6851C51.773 11.0367 51.3055 11.5347 50.9548 12.1792C50.6237 12.8043 50.4581 13.5074 50.4581 14.2886V22.4333H47.244V13.8785C47.244 12.648 46.9615 11.7203 46.3966 11.0952C45.8512 10.4507 45.0817 10.1284 44.0883 10.1284C43.426 10.1284 42.8026 10.314 42.2182 10.6851C41.6339 11.0367 41.1663 11.5347 40.8157 12.1792C40.4651 12.8043 40.2898 13.5074 40.2898 14.2886V22.4333H37.1049Z" fill="white"/>
<path d="M27.2684 22.7848C25.8269 22.7848 24.5218 22.4528 23.353 21.7887C22.1842 21.1051 21.259 20.1774 20.5772 19.0055C19.8954 17.8141 19.5545 16.4957 19.5545 15.0504C19.5545 13.605 19.8954 12.2867 20.5772 11.0952C21.259 9.90383 22.1842 8.97608 23.353 8.31201C24.5218 7.62841 25.8269 7.28661 27.2684 7.28661C28.7294 7.28661 30.0442 7.62841 31.213 8.31201C32.3818 8.97608 33.2973 9.90383 33.9596 11.0952C34.6219 12.2671 34.9531 13.5562 34.9531 14.9625V15.8414H22.8271C22.9245 16.6031 23.1777 17.2965 23.5868 17.9215C24.0153 18.5465 24.551 19.0446 25.1938 19.4157C25.8367 19.7672 26.5282 19.943 27.2684 19.943C28.2813 19.943 29.1384 19.7379 29.8397 19.3278C30.541 18.8981 31.0572 18.3707 31.3883 17.7457H34.7193C34.2324 19.152 33.3558 20.3434 32.0896 21.32C30.8429 22.2966 29.2358 22.7848 27.2684 22.7848ZM31.5344 13.5855C31.437 12.9605 31.1935 12.3843 30.804 11.857C30.4338 11.3296 29.9371 10.9097 29.3138 10.5972C28.7099 10.2847 28.0281 10.1284 27.2684 10.1284C26.5282 10.1284 25.8464 10.2847 25.2231 10.5972C24.6192 10.9097 24.1225 11.3296 23.7329 11.857C23.3433 12.3843 23.0706 12.9605 22.9147 13.5855H31.5344Z" fill="white"/>
<path d="M0.5 22.4335V1.92541H9.67488C11.2527 1.92541 12.626 2.21838 13.7948 2.80433C14.9636 3.37074 15.8596 4.16177 16.483 5.1774C17.1063 6.19304 17.418 7.32587 17.418 8.57588C17.418 10.0993 16.9602 11.4079 16.0447 12.5017C15.1486 13.5759 13.9312 14.3474 12.3923 14.8162L17.3596 22.4335H13.3565L8.73986 15.2557H3.9771V22.4335H0.5ZM9.61644 11.9744C10.9995 11.9744 12.0514 11.6716 12.7721 11.0661C13.4929 10.4411 13.8532 9.61105 13.8532 8.57588C13.8532 7.56024 13.4929 6.74969 12.7721 6.14421C12.0514 5.5192 10.9995 5.2067 9.61644 5.2067H3.9771V11.9744H9.61644Z" fill="white"/>
<path d="M103.162 28L104.856 22.4335H101.555L97.61 7.63844H100.97L104.038 19.5917H105.704L109.239 7.63844H112.57L106.522 28H103.162Z" fill="white"/>
<path fill-rule="evenodd" clip-rule="evenodd" d="M119.696 19.1791L128.413 27.8968H147.592V8.71776L138.875 0H123.183C121.257 0 119.696 1.56123 119.696 3.4871V19.1791ZM137.131 1.74355H123.183C122.294 1.74355 121.56 2.40909 121.453 3.26916H121.439L121.439 19.1791H124.926L124.926 6.10243C124.926 5.62096 125.317 5.23066 125.798 5.23066H133.644V9.58954C133.644 10.071 133.254 10.4613 132.772 10.4613H128.413V13.9484L133.644 19.1791H138.875L133.644 13.9484C135.57 13.9484 137.131 12.3872 137.131 10.4613V1.74355Z" fill="white"/>
</svg>
