<svg fill="none" height="145" viewBox="0 0 589 145" width="589" xmlns="http://www.w3.org/2000/svg"><g fill="#fff"><path d="m7.83636 109v-75.1432h33.70704c5.7968 0 10.8421 1.0735 15.136 3.2204 4.2939 2.0754 7.5859 4.9738 9.876 8.6952s3.4351 7.8721 3.4351 12.4523c0 5.582-1.6818 10.3769-5.0453 14.3845-3.292 3.9361-7.7648 6.7629-13.4184 8.4805l18.249 27.9103h-14.7066l-16.9609-26.3001h-17.4976v26.3001zm33.49234-38.323c5.0812 0 8.9457-1.1093 11.5936-3.3278 2.6479-2.2901 3.9718-5.3316 3.9718-9.1245 0-3.7214-1.3239-6.6913-3.9718-8.9099-2.6479-2.29-6.5124-3.4351-11.5936-3.4351h-20.718v24.7973zm63.0973 39.611c-5.2963 0-10.0911-1.216-14.385-3.65-4.2939-2.504-7.6932-5.904-10.198-10.1976-2.5048-4.3655-3.7572-9.1961-3.7572-14.4919s1.2524-10.1265 3.7572-14.4919c2.5048-4.3655 5.9041-7.7648 10.198-10.198 4.2939-2.5048 9.0887-3.7572 14.385-3.7572 5.367 0 10.198 1.2524 14.491 3.7572 4.294 2.4332 7.658 5.8325 10.091 10.198 2.433 4.2939 3.65 9.0171 3.65 14.1698v3.2204h-44.5493c.3579 2.7911 1.2882 5.3316 2.7911 7.6217 1.5744 2.2901 3.5424 4.115 5.9041 5.4747 2.3616 1.2882 4.9021 1.9323 7.6221 1.9323 3.721 0 6.87-.7515 9.446-2.2543 2.576-1.5745 4.473-3.5067 5.69-5.7968h12.237c-1.789 5.1527-5.009 9.5186-9.661 13.0966-4.58 3.578-10.484 5.367-17.712 5.367zm15.672-33.7069c-.358-2.2901-1.252-4.4013-2.683-6.3335-1.36-1.9323-3.185-3.4709-5.475-4.6159-2.219-1.1451-4.723-1.7176-7.514-1.7176-2.72 0-5.2247.5725-7.5148 1.7176-2.2185 1.145-4.0434 2.6836-5.4747 4.6159-1.4313 1.9322-2.4332 4.0434-3.0057 6.3335zm23.051 32.4189v-54.2104h11.7v7.8363h.323c1.431-2.5763 3.578-4.7233 6.44-6.4408 2.935-1.7891 6.405-2.6837 10.413-2.6837 4.437 0 8.158 1.0019 11.164 3.0057s5.189 4.4728 6.548 7.407h.537c1.575-2.9342 3.972-5.4032 7.192-7.407 3.221-2.0038 7.085-3.0057 11.594-3.0057 4.079 0 7.657.8946 10.735 2.6837 3.077 1.7891 5.439 4.437 7.085 7.9437 1.717 3.4351 2.576 7.5859 2.576 12.4523v32.4189h-11.701v-31.3454c0-4.5086-1.038-7.908-3.113-10.198-2.075-2.3617-4.902-3.5425-8.48-3.5425-2.505 0-4.831.6799-6.978 2.0396-2.147 1.2882-3.865 3.1131-5.153 5.4747-1.216 2.2901-1.825 4.8664-1.825 7.729v29.8426h-11.808v-31.3454c0-4.5086-1.038-7.908-3.113-10.198-2.004-2.3617-4.831-3.5425-8.48-3.5425-2.434 0-4.724.6799-6.871 2.0396-2.147 1.2882-3.864 3.1131-5.152 5.4747-1.288 2.2901-1.933 4.8664-1.933 7.729v29.8426zm124.394 1.288c-5.296 0-10.09-1.216-14.384-3.65-4.294-2.504-7.694-5.904-10.198-10.1976-2.505-4.3655-3.757-9.1961-3.757-14.4919s1.252-10.1265 3.757-14.4919c2.504-4.3655 5.904-7.7648 10.198-10.198 4.294-2.5048 9.088-3.7572 14.384-3.7572 5.368 0 10.198 1.2524 14.492 3.7572 4.294 2.4332 7.658 5.8325 10.091 10.198 2.433 4.2939 3.65 9.0171 3.65 14.1698v3.2204h-44.55c.358 2.7911 1.289 5.3316 2.791 7.6217 1.575 2.2901 3.543 4.115 5.905 5.4747 2.361 1.2882 4.902 1.9323 7.621 1.9323 3.722 0 6.87-.7515 9.447-2.2543 2.576-1.5745 4.473-3.5067 5.689-5.7968h12.238c-1.789 5.1527-5.01 9.5186-9.661 13.0966-4.581 3.578-10.485 5.367-17.713 5.367zm15.673-33.7069c-.358-2.2901-1.252-4.4013-2.684-6.3335-1.359-1.9323-3.184-3.4709-5.474-4.6159-2.219-1.1451-4.724-1.7176-7.515-1.7176-2.719 0-5.224.5725-7.514 1.7176-2.219 1.145-4.043 2.6836-5.475 4.6159-1.431 1.9322-2.433 4.0434-3.005 6.3335zm45.593 33.7069c-4.651 0-8.945-1.181-12.881-3.542-3.865-2.434-6.942-5.797-9.232-10.091-2.29-4.3654-3.435-9.2676-3.435-14.7065 0-5.5105 1.145-10.4127 3.435-14.7066 2.29-4.3655 5.367-7.7291 9.232-10.0907 3.936-2.4332 8.23-3.6498 12.881-3.6498 3.364 0 6.298.5725 8.803 1.7175 2.576 1.0735 4.651 2.3617 6.226 3.8646 1.574 1.4313 2.612 2.6121 3.113 3.5424h.322v-28.7691h11.808v75.1432h-11.808v-7.836h-.322c-.501.93-1.539 2.147-3.113 3.649-1.575 1.432-3.65 2.72-6.226 3.865-2.505 1.073-5.439 1.61-8.803 1.61zm2.362-10.4125c3.006 0 5.725-.7157 8.158-2.147 2.505-1.5028 4.437-3.614 5.797-6.3335 1.431-2.7194 2.147-5.8683 2.147-9.4465 0-3.6499-.716-6.8345-2.147-9.554-1.36-2.7194-3.292-4.7948-5.797-6.2261-2.433-1.5029-5.152-2.2543-8.158-2.2543-2.934 0-5.618.7514-8.051 2.2543-2.433 1.4313-4.366 3.5067-5.797 6.2261-1.36 2.7195-2.04 5.9041-2.04 9.554 0 3.5782.68 6.7271 2.04 9.4465 1.431 2.7195 3.364 4.8307 5.797 6.3335 2.433 1.4313 5.117 2.147 8.051 2.147zm56.592 29.5205 6.226-20.396h-12.13l-14.492-54.2104h12.345l11.272 43.7977h6.118l12.989-43.7977h12.238l-22.221 74.6064z"/><path clip-rule="evenodd" d="m537.457 0-61.388.00002247c-9.427.00000332-17.069 7.64130753-17.069 17.06727753v66.5222l48.531 46.3495h81.469v-78.4777zm-56.593 7.79651h24.719l31.988.00016v26.51973 8.6398c0 8.8897-7.342 16.096-16.398 16.096l27.216 24.1089h-22.924l-26.452-24.0087v-12.5363h6.963 10.259c3.695 0 6.69-2.9402 6.69-6.567v-18.9445h-16.949-17.822c-3.343 0-6.053 2.6602-6.053 5.9417v19.5698h.02v12.4361h-.02v24.1089h-15.573v-61.2924c0-7.7719 6.418-14.07219 14.336-14.07219z" fill-rule="evenodd"/></g></svg>