<svg height="14" viewBox="0 0 14 14" width="14" xmlns="http://www.w3.org/2000/svg"><path d="m200.6788 221.53285c1.2791.52981 2.3723 1.42702 3.1415 2.57816.7692 1.15115 1.179701 2.50452 1.179701 3.888991-.002101 1.855879-.740301 3.635099-2.052601 4.947399s-3.09152 2.0505-4.947399 2.052601c-1.384471 0-2.737841-.410501-3.888991-1.179701-1.15114-.7692-2.04835-1.8624-2.57816-3.1415-.52982-1.2791-.66844-2.68656-.39834-4.04443.27009-1.35787.93678-2.60515 1.91575-3.58411.97896-.97897 2.22624-1.64566 3.58411-1.91575 1.35787-.2701 2.76533-.13148 4.04443.39834zm-2.6788.46715c-1.18668 0-2.34672.3519-3.33342 1.01119-.98669.65928-1.75573 1.59636-2.20985 2.69271-.45413 1.09636-.57295 2.30276-.34144 3.46664.23151 1.16386.80296 2.23296 1.64207 3.07206.83912.8392 1.90822 1.4106 3.0721 1.6421 1.16389.2315 2.37029.1127 3.46664-.3414 1.0964-.4541 2.0334-1.2232 2.6927-2.2099s1.0112-2.14671 1.0112-3.3334c-.0018-1.59074-.6345-3.11581-1.7594-4.24064-1.1248-1.12482-2.64985-1.75754-4.2406-1.75936zm.5 7v3.5h-1v-3.5zm-1.5-1.5v1h-3.5v-1zm5.5 0v1h-3.5v-1zm-4-4v3.5h-1v-3.5z" fill="#fff" transform="translate(-191 -221)"/></svg>