<svg height="19" viewBox="0 0 18 19" width="18" xmlns="http://www.w3.org/2000/svg"><path d="m388 98.75c2.3206 0 4.5462.92187 6.1872 2.56282 1.6409 1.64094 2.562798 3.86654 2.562798 6.18718 0 1.7306-.513198 3.4223-1.474598 4.8612-.9615 1.439-2.3281 2.5605-3.9269 3.2227-1.5989.6623-3.3582.8356-5.05554.498-1.69733-.3376-3.25643-1.171-4.48014-2.3947s-2.05707-2.7828-2.39469-4.4802c-.33762-1.6973-.16434-3.45663.49793-5.05548.66226-1.59885 1.78377-2.96542 3.2227-3.92688s3.13066-1.47464 4.86124-1.47464zm2.8701 1.8209c-1.3704-.56765-2.87842-.71618-4.33327-.42679-1.45486.28939-2.79123 1.0037-3.84013 2.05259-1.04889 1.04889-1.7632 2.38527-2.05259 3.84012-.28938 1.45488-.14086 2.96288.4268 4.33328.56765 1.3705 1.52895 2.5418 2.76232 3.3659s2.68341 1.263997 4.166771 1.263997c1.989099 0 3.896799-.790197 5.303299-2.196697s2.196701-3.3142 2.196701-5.303303c0-1.483357-.439901-2.933407-1.264001-4.166777s-1.9954-2.19466-3.3659-2.76232zm-2.8701 10.6791c.5178 0 .9375.4197.9375.9375s-.4197.9375-.9375.9375c-.51777 0-.9375-.4197-.9375-.9375s.41973-.9375.9375-.9375zm.625-8.749997c.7459 0 1.4613.296317 1.9887.823767.5275.52745.8238 1.24282.8238 1.98874s-.2963 1.46129-.8238 1.98869c-.5274.5275-1.2428.8238-1.9887.8238v1.5625h-1.249997v-2.81249h1.249997c.4144 0 .8118-.16462 1.1049-.45765.293-.29302.4576-.69045.4576-1.10485s-.1646-.81183-.4576-1.10486c-.2931-.29302-.6905-.45764-1.1049-.45764h-.93749c-.4144 0-.81183.16462-1.10486.45764-.29302.29303-.45764.69046-.45764 1.10486v.3125h-1.250007v-.3125c-.000823-.36958.071367-.73567.212417-1.07727s.34818-.65198.60951-.91331.57171-.46846.91331-.60951.70769-.21324 1.07727-.212417z" fill="#fff" transform="translate(-379 -98)"/></svg>