<svg height="16" viewBox="0 0 16 16" width="16" xmlns="http://www.w3.org/2000/svg"><path d="m434.25 114.5h-2.5c-.33152 0-.64946-.1317-.88388-.3661s-.36612-.5524-.36612-.8839v-4.7438l-4.63125-4.6312c-.23474-.23334-.36735-.55026-.36875-.88125v-2.24375c0-.33152.1317-.64946.36612-.88388s.55236-.36612.88388-.36612h12.5c.3315 0 .6495.1317.8839.36612s.3661.55236.3661.88388v2.24375c-.0014.33099-.134.64791-.3688.88125l-4.6312 4.6312v4.7438c0 .3315-.1317.6495-.3661.8839s-.5524.3661-.8839.3661zm-7.5-13.75v2.24375l5 5.00005v5.2562h2.5v-5.2562l5-5.00005v-2.24375z" fill="#fff" transform="translate(-425 -99)"/></svg>