<svg height="19" viewBox="0 0 18 19" width="18" xmlns="http://www.w3.org/2000/svg"><g fill="none" transform="translate(.875 .625)"><path d="m14.375 9.7412v-1.6162h-1.25v1.875c0 .1657.0659.3247.1831.4419l1.6919 1.6919v.9912h-13.75v-.9912l1.69187-1.6919c.11722-.1172.18309-.2762.18313-.4419v-2.5c-.00161-.8782.22853-1.74127.66719-2.50207s1.0703-1.39238 1.83113-1.83097c.76084-.43859 1.62393-.66866 2.50218-.66698.8781.00169 1.7404.23507 2.4995.67658v-1.39737c-.5949-.26341-1.2277-.43128-1.875-.49744v-1.28175h-1.25v1.28175c-1.54083.15677-2.9688.8793-4.00779 2.02787s-1.6152 2.6416-1.61721 4.19038v2.2412l-1.69188 1.6919c-.11721.1172-.18312.2762-.18312.4419v1.875c0 .1658.06585.3247.18306.4419.11721.1173.27618.1831.44194.1831h4.375v.625c0 .8288.32924 1.6237.91529 2.2097.58605.5861 1.38091.9153 2.20971.9153s1.6237-.3292 2.2097-.9153c.5861-.586.9153-1.3809.9153-2.2097v-.625h4.375c.1658 0 .3247-.0658.4419-.1831.1173-.1172.1831-.2761.1831-.4419v-1.875c0-.1657-.0659-.3247-.1831-.4419zm-4.375 5.2588c0 .4973-.1975.9742-.5492 1.3258-.3516.3517-.8285.5492-1.3258.5492-.49728 0-.97419-.1975-1.32583-.5492-.35163-.3516-.54917-.8285-.54917-1.3258v-.625h3.75z" fill="#fff"/><path d="m14.375 6.875c1.3807 0 2.5-1.11929 2.5-2.5s-1.1193-2.5-2.5-2.5-2.5 1.11929-2.5 2.5 1.1193 2.5 2.5 2.5z" fill="#c03c3c"/></g></svg>