<svg height="21" viewBox="0 0 21 21" width="21" xmlns="http://www.w3.org/2000/svg"><path d="m283.7502 121.6895-5.6641-5.6641c1.361-1.634 2.0397-3.7298 1.8949-5.85141-.1448-2.12163-1.1021-4.10575-2.6725-5.53961-1.5705-1.43385-3.6333-2.20705-5.75932-2.15873-2.12602.04831-4.15157.91441-5.65529 2.41812-1.50371 1.50371-2.36981 3.52927-2.41812 5.65529-.04831 2.12604.72488 4.18884 2.15874 5.75934 1.43385 1.5704 3.41797 2.5276 5.53961 2.6725 2.12168.1448 4.21738-.5339 5.85138-1.8949l5.6641 5.6641zm-18.75002-10.93944c0-1.33503.39588-2.64007 1.13758-3.7501.7417-1.11004 1.7959-1.9752 3.0293-2.48609 1.23341-.51089 2.59061-.64457 3.89994-.38412 1.3094.26046 2.5121.90333 3.4561 1.84733.9441.94401 1.5869 2.14674 1.8474 3.45612.2604 1.30937.1268 2.6666-.3841 3.9s-1.3761 2.2876-2.4861 3.0293c-1.1101.7417-2.4151 1.1376-3.75012 1.1376-1.7896-.002-3.50534-.7138-4.77078-1.9793-1.26544-1.2654-1.97724-2.9811-1.97922-4.77074z" fill="#fff" transform="translate(-263 -102)"/></svg>