<svg height="14" viewBox="0 0 12 14" width="12" xmlns="http://www.w3.org/2000/svg"><path d="m200 189c.2652 0 .5196.10536.7071.29289.1875.18754.2929.44189.2929.70711v.5h1.5c.2652 0 .5196.10536.7071.29289.1875.18754.2929.44189.2929.70711v10.5c0 .2652-.1054.5196-.2929.7071s-.4419.2929-.7071.2929h-9c-.26522 0-.51957-.1054-.70711-.2929-.18753-.1875-.29289-.4419-.29289-.7071v-10.5c0-.26522.10536-.51957.29289-.70711.18754-.18753.44189-.29289.70711-.29289h1.5v-.5c0-.26522.10536-.51957.29289-.70711.18754-.18753.44189-.29289.70711-.29289zm-5 2.5h-1.5v10.5h9v-10.5h-1.5v1.5h-6zm2.5 8v1h-2.5v-1zm1.5-2.5v1h-4v-1zm2-2.5v1h-6v-1zm-1-4.5h-4v2h4z" fill="#fff" transform="translate(-192 -189)"/></svg>